# xmcd
#
# Track frame offsets: 
#        150
#        14470
#        34405
#        46458
#        60308
#        75983
#        92873
#        106140
#        120308
#        131475
#        152220
#        171418
#
# Disc length: 2451 seconds
#
# Revision: 5
# Processed by: cddbd v1.5.2PL0 Copyright (c) Steve Scherf et al.
# Submitted via: ExactAudioCopy v1.3
#
DISCID=9209910c
DTITLE=Aretha Franklin - Soul '69
DYEAR=1969
DGENRE=Soul
TTITLE0=Ramblin'
TTITLE1=Today I Sing the Blues
TTITLE2=River's Invitation
TTITLE3=Pitiful
TTITLE4=Crazy He Calls Me
TTITLE5=Bring it on Home to Me
TTITLE6=Tracks of My Tears
TTITLE7=If You Gotta Make a Fool of Somebody
TTITLE8=Gentle on My Mind
TTITLE9=So Long
TTITLE10=I'll Never Be Free
TTITLE11=Elusive Butterfly
EXTD=
EXTT0=
EXTT1=
EXTT2=
EXTT3=
EXTT4=
EXTT5=
EXTT6=
EXTT7=
EXTT8=
EXTT9=
EXTT10=
EXTT11=
PLAYORDER=
